<svg width="1440" height="1024" viewBox="0 0 1440 1024" fill="none" xmlns="http://www.w3.org/2000/svg">
<g clip-path="url(#clip0_2_35)">
<rect width="1440" height="1024" fill="white"/>
<rect x="61" y="63" width="376" height="878" fill="#D9D9D9"/>
<rect x="539" y="63" width="816" height="878" fill="#D0FF00"/>
<text fill="black" style="white-space: pre" xml:space="preserve" font-family="Inter" font-size="40" letter-spacing="0em"><tspan x="1207" y="202.2">&#x2796;</tspan></text>
<text fill="black" style="white-space: pre" xml:space="preserve" font-family="Inter" font-size="40" letter-spacing="0em"><tspan x="606" y="797.2">&#x2796;</tspan></text>
<text fill="black" style="white-space: pre" xml:space="preserve" font-family="Inter" font-size="16" letter-spacing="0em"><tspan x="996" y="637.318">&#x30b0;&#x30ea;&#x30c3;&#x30c9;</tspan></text>
<rect x="88" y="138" width="317" height="783" fill="#FFAFAF"/>
<text fill="black" style="white-space: pre" xml:space="preserve" font-family="Inter" font-size="20" letter-spacing="0em"><tspan x="88.4297" y="63.2727">&#x30ed;&#x30b0;&#x30a4;&#x30f3;&#x30e6;&#x30fc;&#x30b6;&#x30fc;&#x306e;10030&#x30ea;&#x30b9;&#x30c8;</tspan></text>
<text fill="black" style="white-space: pre" xml:space="preserve" font-family="Inter" font-size="20" letter-spacing="0em"><tspan x="94.2227" y="167.273">&#x25ef;&#x25ef;&#x306e;30030&#x7d75;&#x6587;&#x5b57;&#x30bb;&#x30c3;&#x30c8;</tspan></text>
<text fill="black" style="white-space: pre" xml:space="preserve" font-family="Inter" font-size="20" letter-spacing="0em"><tspan x="110.34" y="397.273">&#x25bd;&#x25bd;&#x306e;30030&#x7d75;&#x6587;&#x5b57;&#x30bb;&#x30c3;&#x30c8;</tspan></text>
<text fill="black" style="white-space: pre" xml:space="preserve" font-family="Inter" font-size="20" letter-spacing="0em"><tspan x="109.037" y="861.273">10030&#x306b;&#x76f4;&#x5165;&#x308c;&#x3057;&#x3066;&#x3044;&#x308b;&#x7d75;&#x6587;&#x5b57;</tspan></text>
<text fill="black" style="white-space: pre" xml:space="preserve" font-family="Inter" font-size="16" letter-spacing="0em"><tspan x="217" y="476.318">&#x30d1;&#x30ec;&#x30c3;&#x30c8;</tspan></text>
<rect x="1286" y="47" width="108" height="134" fill="#D9D9D9"/>
<text fill="black" style="white-space: pre" xml:space="preserve" font-family="Inter" font-size="40" letter-spacing="0em"><tspan x="1320" y="122.227">&#x1f340;</tspan></text>
<text fill="black" style="white-space: pre" xml:space="preserve" font-family="Inter" font-size="24" letter-spacing="0em"><tspan x="1304" y="82.2273">&#x9078;&#x629e;&#x4e2d;&#10;</tspan></text>
<rect x="647.5" y="202.5" width="39" height="39" fill="white" stroke="black"/>
<rect x="687.5" y="202.5" width="39" height="39" fill="white" stroke="black"/>
<rect x="727.5" y="202.5" width="39" height="39" fill="white" stroke="black"/>
<rect x="767.5" y="202.5" width="39" height="39" fill="white" stroke="black"/>
<rect x="807.5" y="202.5" width="39" height="39" fill="white" stroke="black"/>
<rect x="647.5" y="242.5" width="39" height="39" fill="white" stroke="black"/>
<rect x="647.5" y="282.5" width="39" height="39" fill="white" stroke="black"/>
<rect x="647.5" y="322.5" width="39" height="39" fill="white" stroke="black"/>
<rect x="687.5" y="242.5" width="39" height="39" fill="white" stroke="black"/>
<rect x="727.5" y="242.5" width="39" height="39" fill="white" stroke="black"/>
<rect x="727.5" y="282.5" width="39" height="39" fill="white" stroke="black"/>
<rect x="727.5" y="282.5" width="39" height="39" fill="white" stroke="black"/>
<rect x="767.5" y="282.5" width="39" height="39" fill="white" stroke="black"/>
<rect x="807.5" y="282.5" width="39" height="39" fill="white" stroke="black"/>
<rect x="767.5" y="322.5" width="39" height="39" fill="white" stroke="black"/>
<rect x="767.5" y="362.5" width="39" height="39" fill="white" stroke="black"/>
<rect x="807.5" y="322.5" width="39" height="39" fill="white" stroke="black"/>
<rect x="807.5" y="362.5" width="39" height="39" fill="white" stroke="black"/>
<rect x="727.5" y="322.5" width="39" height="39" fill="white" stroke="black"/>
<rect x="727.5" y="362.5" width="39" height="39" fill="white" stroke="black"/>
<rect x="767.5" y="242.5" width="39" height="39" fill="white" stroke="black"/>
<rect x="807.5" y="242.5" width="39" height="39" fill="white" stroke="black"/>
<rect x="687.5" y="282.5" width="39" height="39" fill="white" stroke="black"/>
<rect x="687.5" y="322.5" width="39" height="39" fill="white" stroke="black"/>
<rect x="687.5" y="362.5" width="39" height="39" fill="white" stroke="black"/>
<rect x="647.5" y="362.5" width="39" height="39" fill="white" stroke="black"/>
<text fill="black" style="white-space: pre" xml:space="preserve" font-family="Inter" font-size="36" letter-spacing="0em"><tspan x="771" y="315.48">&#x1f955;</tspan></text>
<rect x="847.5" y="202.5" width="39" height="39" fill="white" stroke="black"/>
<rect x="887.5" y="202.5" width="39" height="39" fill="white" stroke="black"/>
<rect x="927.5" y="202.5" width="39" height="39" fill="white" stroke="black"/>
<rect x="967.5" y="202.5" width="39" height="39" fill="white" stroke="black"/>
<rect x="1007.5" y="202.5" width="39" height="39" fill="white" stroke="black"/>
<rect x="847.5" y="242.5" width="39" height="39" fill="white" stroke="black"/>
<rect x="847.5" y="282.5" width="39" height="39" fill="white" stroke="black"/>
<rect x="847.5" y="322.5" width="39" height="39" fill="white" stroke="black"/>
<rect x="887.5" y="242.5" width="39" height="39" fill="white" stroke="black"/>
<rect x="927.5" y="242.5" width="39" height="39" fill="white" stroke="black"/>
<rect x="927.5" y="282.5" width="39" height="39" fill="white" stroke="black"/>
<rect x="927.5" y="282.5" width="39" height="39" fill="white" stroke="black"/>
<rect x="967.5" y="282.5" width="39" height="39" fill="white" stroke="black"/>
<rect x="1007.5" y="282.5" width="39" height="39" fill="white" stroke="black"/>
<rect x="967.5" y="322.5" width="39" height="39" fill="white" stroke="black"/>
<rect x="967.5" y="362.5" width="39" height="39" fill="white" stroke="black"/>
<rect x="1007.5" y="322.5" width="39" height="39" fill="white" stroke="black"/>
<rect x="1007.5" y="362.5" width="39" height="39" fill="white" stroke="black"/>
<rect x="927.5" y="322.5" width="39" height="39" fill="white" stroke="black"/>
<rect x="927.5" y="362.5" width="39" height="39" fill="white" stroke="black"/>
<rect x="967.5" y="242.5" width="39" height="39" fill="white" stroke="black"/>
<rect x="1007.5" y="242.5" width="39" height="39" fill="white" stroke="black"/>
<rect x="887.5" y="282.5" width="39" height="39" fill="white" stroke="black"/>
<rect x="887.5" y="322.5" width="39" height="39" fill="white" stroke="black"/>
<rect x="887.5" y="362.5" width="39" height="39" fill="white" stroke="black"/>
<rect x="847.5" y="362.5" width="39" height="39" fill="white" stroke="black"/>
<rect x="1047.5" y="202.5" width="39" height="39" fill="white" stroke="black"/>
<rect x="1087.5" y="202.5" width="39" height="39" fill="white" stroke="black"/>
<rect x="1127.5" y="202.5" width="39" height="39" fill="white" stroke="black"/>
<rect x="1167.5" y="202.5" width="39" height="39" fill="white" stroke="black"/>
<rect x="1207.5" y="202.5" width="39" height="39" fill="white" stroke="black"/>
<rect x="1047.5" y="242.5" width="39" height="39" fill="white" stroke="black"/>
<rect x="1047.5" y="282.5" width="39" height="39" fill="white" stroke="black"/>
<rect x="1047.5" y="322.5" width="39" height="39" fill="white" stroke="black"/>
<rect x="1087.5" y="242.5" width="39" height="39" fill="white" stroke="black"/>
<rect x="1127.5" y="242.5" width="39" height="39" fill="white" stroke="black"/>
<rect x="1127.5" y="282.5" width="39" height="39" fill="white" stroke="black"/>
<rect x="1127.5" y="282.5" width="39" height="39" fill="white" stroke="black"/>
<rect x="1167.5" y="282.5" width="39" height="39" fill="white" stroke="black"/>
<rect x="1207.5" y="282.5" width="39" height="39" fill="white" stroke="black"/>
<rect x="1167.5" y="322.5" width="39" height="39" fill="white" stroke="black"/>
<rect x="1167.5" y="362.5" width="39" height="39" fill="white" stroke="black"/>
<rect x="1207.5" y="322.5" width="39" height="39" fill="white" stroke="black"/>
<rect x="1207.5" y="362.5" width="39" height="39" fill="white" stroke="black"/>
<rect x="1127.5" y="322.5" width="39" height="39" fill="white" stroke="black"/>
<rect x="1127.5" y="362.5" width="39" height="39" fill="white" stroke="black"/>
<rect x="1167.5" y="242.5" width="39" height="39" fill="white" stroke="black"/>
<rect x="1207.5" y="242.5" width="39" height="39" fill="white" stroke="black"/>
<rect x="1087.5" y="282.5" width="39" height="39" fill="white" stroke="black"/>
<rect x="1087.5" y="322.5" width="39" height="39" fill="white" stroke="black"/>
<rect x="1087.5" y="362.5" width="39" height="39" fill="white" stroke="black"/>
<rect x="1047.5" y="362.5" width="39" height="39" fill="white" stroke="black"/>
<rect x="647.5" y="402.5" width="39" height="39" fill="white" stroke="black"/>
<rect x="687.5" y="402.5" width="39" height="39" fill="white" stroke="black"/>
<rect x="727.5" y="402.5" width="39" height="39" fill="white" stroke="black"/>
<rect x="767.5" y="402.5" width="39" height="39" fill="white" stroke="black"/>
<rect x="807.5" y="402.5" width="39" height="39" fill="white" stroke="black"/>
<rect x="647.5" y="442.5" width="39" height="39" fill="white" stroke="black"/>
<rect x="647.5" y="482.5" width="39" height="39" fill="white" stroke="black"/>
<rect x="647.5" y="522.5" width="39" height="39" fill="white" stroke="black"/>
<rect x="687.5" y="442.5" width="39" height="39" fill="white" stroke="black"/>
<rect x="727.5" y="442.5" width="39" height="39" fill="white" stroke="black"/>
<rect x="727.5" y="482.5" width="39" height="39" fill="white" stroke="black"/>
<rect x="727.5" y="482.5" width="39" height="39" fill="white" stroke="black"/>
<rect x="767.5" y="482.5" width="39" height="39" fill="white" stroke="black"/>
<rect x="807.5" y="482.5" width="39" height="39" fill="white" stroke="black"/>
<rect x="767.5" y="522.5" width="39" height="39" fill="white" stroke="black"/>
<rect x="767.5" y="562.5" width="39" height="39" fill="white" stroke="black"/>
<rect x="807.5" y="522.5" width="39" height="39" fill="white" stroke="black"/>
<rect x="807.5" y="562.5" width="39" height="39" fill="white" stroke="black"/>
<rect x="727.5" y="522.5" width="39" height="39" fill="white" stroke="black"/>
<rect x="727.5" y="562.5" width="39" height="39" fill="white" stroke="black"/>
<rect x="767.5" y="442.5" width="39" height="39" fill="white" stroke="black"/>
<rect x="807.5" y="442.5" width="39" height="39" fill="white" stroke="black"/>
<rect x="687.5" y="482.5" width="39" height="39" fill="white" stroke="black"/>
<rect x="687.5" y="522.5" width="39" height="39" fill="white" stroke="black"/>
<rect x="687.5" y="562.5" width="39" height="39" fill="white" stroke="black"/>
<rect x="647.5" y="562.5" width="39" height="39" fill="white" stroke="black"/>
<rect x="847.5" y="402.5" width="39" height="39" fill="white" stroke="black"/>
<rect x="887.5" y="402.5" width="39" height="39" fill="white" stroke="black"/>
<rect x="927.5" y="402.5" width="39" height="39" fill="white" stroke="black"/>
<rect x="967.5" y="402.5" width="39" height="39" fill="white" stroke="black"/>
<rect x="1007.5" y="402.5" width="39" height="39" fill="white" stroke="black"/>
<rect x="847.5" y="442.5" width="39" height="39" fill="white" stroke="black"/>
<rect x="847.5" y="482.5" width="39" height="39" fill="white" stroke="black"/>
<rect x="847.5" y="522.5" width="39" height="39" fill="white" stroke="black"/>
<rect x="887.5" y="442.5" width="39" height="39" fill="white" stroke="black"/>
<rect x="927.5" y="442.5" width="39" height="39" fill="white" stroke="black"/>
<rect x="927.5" y="482.5" width="39" height="39" fill="white" stroke="black"/>
<rect x="927.5" y="482.5" width="39" height="39" fill="white" stroke="black"/>
<rect x="967.5" y="482.5" width="39" height="39" fill="white" stroke="black"/>
<rect x="1007.5" y="482.5" width="39" height="39" fill="white" stroke="black"/>
<rect x="967.5" y="522.5" width="39" height="39" fill="white" stroke="black"/>
<rect x="967.5" y="562.5" width="39" height="39" fill="white" stroke="black"/>
<rect x="1007.5" y="522.5" width="39" height="39" fill="white" stroke="black"/>
<rect x="1007.5" y="562.5" width="39" height="39" fill="white" stroke="black"/>
<rect x="927.5" y="522.5" width="39" height="39" fill="white" stroke="black"/>
<rect x="927.5" y="562.5" width="39" height="39" fill="white" stroke="black"/>
<rect x="967.5" y="442.5" width="39" height="39" fill="white" stroke="black"/>
<rect x="1007.5" y="442.5" width="39" height="39" fill="white" stroke="black"/>
<rect x="887.5" y="482.5" width="39" height="39" fill="white" stroke="black"/>
<rect x="887.5" y="522.5" width="39" height="39" fill="white" stroke="black"/>
<rect x="887.5" y="562.5" width="39" height="39" fill="white" stroke="black"/>
<rect x="847.5" y="562.5" width="39" height="39" fill="white" stroke="black"/>
<text fill="black" style="white-space: pre" xml:space="preserve" font-family="Inter" font-size="40" letter-spacing="0em"><tspan x="847" y="439.2">&#x1fae8;&#x1fae8;&#x1fae8;</tspan></text>
<rect x="1047.5" y="402.5" width="39" height="39" fill="white" stroke="black"/>
<rect x="1087.5" y="402.5" width="39" height="39" fill="white" stroke="black"/>
<rect x="1127.5" y="402.5" width="39" height="39" fill="white" stroke="black"/>
<rect x="1167.5" y="402.5" width="39" height="39" fill="white" stroke="black"/>
<rect x="1207.5" y="402.5" width="39" height="39" fill="white" stroke="black"/>
<rect x="1047.5" y="442.5" width="39" height="39" fill="white" stroke="black"/>
<rect x="1047.5" y="482.5" width="39" height="39" fill="white" stroke="black"/>
<rect x="1047.5" y="522.5" width="39" height="39" fill="white" stroke="black"/>
<rect x="1087.5" y="442.5" width="39" height="39" fill="white" stroke="black"/>
<rect x="1127.5" y="442.5" width="39" height="39" fill="white" stroke="black"/>
<rect x="1127.5" y="482.5" width="39" height="39" fill="white" stroke="black"/>
<rect x="1127.5" y="482.5" width="39" height="39" fill="white" stroke="black"/>
<rect x="1167.5" y="482.5" width="39" height="39" fill="white" stroke="black"/>
<rect x="1207.5" y="482.5" width="39" height="39" fill="white" stroke="black"/>
<rect x="1167.5" y="522.5" width="39" height="39" fill="white" stroke="black"/>
<rect x="1167.5" y="562.5" width="39" height="39" fill="white" stroke="black"/>
<rect x="1207.5" y="522.5" width="39" height="39" fill="white" stroke="black"/>
<rect x="1207.5" y="562.5" width="39" height="39" fill="white" stroke="black"/>
<rect x="1127.5" y="522.5" width="39" height="39" fill="white" stroke="black"/>
<rect x="1127.5" y="562.5" width="39" height="39" fill="white" stroke="black"/>
<rect x="1167.5" y="442.5" width="39" height="39" fill="white" stroke="black"/>
<rect x="1207.5" y="442.5" width="39" height="39" fill="white" stroke="black"/>
<rect x="1087.5" y="482.5" width="39" height="39" fill="white" stroke="black"/>
<rect x="1087.5" y="522.5" width="39" height="39" fill="white" stroke="black"/>
<rect x="1087.5" y="562.5" width="39" height="39" fill="white" stroke="black"/>
<rect x="1047.5" y="562.5" width="39" height="39" fill="white" stroke="black"/>
<rect x="647.5" y="602.5" width="39" height="39" fill="white" stroke="black"/>
<rect x="687.5" y="602.5" width="39" height="39" fill="white" stroke="black"/>
<rect x="727.5" y="602.5" width="39" height="39" fill="white" stroke="black"/>
<rect x="767.5" y="602.5" width="39" height="39" fill="white" stroke="black"/>
<rect x="807.5" y="602.5" width="39" height="39" fill="white" stroke="black"/>
<rect x="647.5" y="642.5" width="39" height="39" fill="white" stroke="black"/>
<rect x="647.5" y="682.5" width="39" height="39" fill="white" stroke="black"/>
<rect x="647.5" y="722.5" width="39" height="39" fill="white" stroke="black"/>
<rect x="687.5" y="642.5" width="39" height="39" fill="white" stroke="black"/>
<rect x="727.5" y="642.5" width="39" height="39" fill="white" stroke="black"/>
<rect x="727.5" y="682.5" width="39" height="39" fill="white" stroke="black"/>
<rect x="727.5" y="682.5" width="39" height="39" fill="white" stroke="black"/>
<rect x="767.5" y="682.5" width="39" height="39" fill="white" stroke="black"/>
<rect x="807.5" y="682.5" width="39" height="39" fill="white" stroke="black"/>
<rect x="767.5" y="722.5" width="39" height="39" fill="white" stroke="black"/>
<rect x="767.5" y="762.5" width="39" height="39" fill="white" stroke="black"/>
<rect x="807.5" y="722.5" width="39" height="39" fill="white" stroke="black"/>
<rect x="807.5" y="762.5" width="39" height="39" fill="white" stroke="black"/>
<rect x="727.5" y="722.5" width="39" height="39" fill="white" stroke="black"/>
<rect x="727.5" y="762.5" width="39" height="39" fill="white" stroke="black"/>
<rect x="767.5" y="642.5" width="39" height="39" fill="white" stroke="black"/>
<rect x="807.5" y="642.5" width="39" height="39" fill="white" stroke="black"/>
<rect x="687.5" y="682.5" width="39" height="39" fill="white" stroke="black"/>
<rect x="687.5" y="722.5" width="39" height="39" fill="white" stroke="black"/>
<rect x="687.5" y="762.5" width="39" height="39" fill="white" stroke="black"/>
<rect x="647.5" y="762.5" width="39" height="39" fill="white" stroke="black"/>
<rect x="139.5" y="175.5" width="39" height="39" fill="white" stroke="black"/>
<rect x="179.5" y="175.5" width="39" height="39" fill="white" stroke="black"/>
<rect x="219.5" y="175.5" width="39" height="39" fill="white" stroke="black"/>
<rect x="259.5" y="175.5" width="39" height="39" fill="white" stroke="black"/>
<rect x="299.5" y="175.5" width="39" height="39" fill="white" stroke="black"/>
<rect x="139.5" y="215.5" width="39" height="39" fill="white" stroke="black"/>
<rect x="139.5" y="255.5" width="39" height="39" fill="white" stroke="black"/>
<rect x="139.5" y="295.5" width="39" height="39" fill="white" stroke="black"/>
<rect x="179.5" y="215.5" width="39" height="39" fill="white" stroke="black"/>
<rect x="219.5" y="215.5" width="39" height="39" fill="white" stroke="black"/>
<rect x="219.5" y="255.5" width="39" height="39" fill="white" stroke="black"/>
<rect x="219.5" y="255.5" width="39" height="39" fill="white" stroke="black"/>
<rect x="259.5" y="255.5" width="39" height="39" fill="white" stroke="black"/>
<rect x="299.5" y="255.5" width="39" height="39" fill="white" stroke="black"/>
<rect x="259.5" y="295.5" width="39" height="39" fill="white" stroke="black"/>
<rect x="259.5" y="335.5" width="39" height="39" fill="white" stroke="black"/>
<rect x="299.5" y="295.5" width="39" height="39" fill="white" stroke="black"/>
<rect x="299.5" y="335.5" width="39" height="39" fill="white" stroke="black"/>
<rect x="219.5" y="295.5" width="39" height="39" fill="white" stroke="black"/>
<rect x="219.5" y="335.5" width="39" height="39" fill="white" stroke="black"/>
<rect x="259.5" y="215.5" width="39" height="39" fill="white" stroke="black"/>
<rect x="299.5" y="215.5" width="39" height="39" fill="white" stroke="black"/>
<rect x="179.5" y="255.5" width="39" height="39" fill="white" stroke="black"/>
<rect x="179.5" y="295.5" width="39" height="39" fill="white" stroke="black"/>
<rect x="179.5" y="335.5" width="39" height="39" fill="white" stroke="black"/>
<rect x="139.5" y="335.5" width="39" height="39" fill="white" stroke="black"/>
<rect x="139.5" y="402.5" width="39" height="39" fill="white" stroke="black"/>
<rect x="179.5" y="402.5" width="39" height="39" fill="white" stroke="black"/>
<rect x="219.5" y="402.5" width="39" height="39" fill="white" stroke="black"/>
<rect x="259.5" y="402.5" width="39" height="39" fill="white" stroke="black"/>
<rect x="299.5" y="402.5" width="39" height="39" fill="white" stroke="black"/>
<rect x="139.5" y="442.5" width="39" height="39" fill="white" stroke="black"/>
<rect x="139.5" y="482.5" width="39" height="39" fill="white" stroke="black"/>
<rect x="139.5" y="522.5" width="39" height="39" fill="white" stroke="black"/>
<rect x="179.5" y="442.5" width="39" height="39" fill="white" stroke="black"/>
<rect x="219.5" y="442.5" width="39" height="39" fill="white" stroke="black"/>
<rect x="219.5" y="482.5" width="39" height="39" fill="white" stroke="black"/>
<rect x="219.5" y="482.5" width="39" height="39" fill="white" stroke="black"/>
<rect x="259.5" y="482.5" width="39" height="39" fill="white" stroke="black"/>
<rect x="299.5" y="482.5" width="39" height="39" fill="white" stroke="black"/>
<rect x="259.5" y="522.5" width="39" height="39" fill="white" stroke="black"/>
<rect x="259.5" y="562.5" width="39" height="39" fill="white" stroke="black"/>
<rect x="299.5" y="522.5" width="39" height="39" fill="white" stroke="black"/>
<rect x="299.5" y="562.5" width="39" height="39" fill="white" stroke="black"/>
<rect x="219.5" y="522.5" width="39" height="39" fill="white" stroke="black"/>
<rect x="219.5" y="562.5" width="39" height="39" fill="white" stroke="black"/>
<rect x="259.5" y="442.5" width="39" height="39" fill="white" stroke="black"/>
<rect x="299.5" y="442.5" width="39" height="39" fill="white" stroke="black"/>
<rect x="179.5" y="482.5" width="39" height="39" fill="white" stroke="black"/>
<rect x="179.5" y="522.5" width="39" height="39" fill="white" stroke="black"/>
<rect x="179.5" y="562.5" width="39" height="39" fill="white" stroke="black"/>
<rect x="139.5" y="562.5" width="39" height="39" fill="white" stroke="black"/>
<rect x="139.5" y="602.5" width="39" height="39" fill="white" stroke="black"/>
<rect x="179.5" y="602.5" width="39" height="39" fill="white" stroke="black"/>
<rect x="219.5" y="602.5" width="39" height="39" fill="white" stroke="black"/>
<rect x="259.5" y="602.5" width="39" height="39" fill="white" stroke="black"/>
<rect x="299.5" y="602.5" width="39" height="39" fill="white" stroke="black"/>
<rect x="139.5" y="642.5" width="39" height="39" fill="white" stroke="black"/>
<rect x="139.5" y="682.5" width="39" height="39" fill="white" stroke="black"/>
<rect x="139.5" y="722.5" width="39" height="39" fill="white" stroke="black"/>
<rect x="179.5" y="642.5" width="39" height="39" fill="white" stroke="black"/>
<rect x="219.5" y="642.5" width="39" height="39" fill="white" stroke="black"/>
<rect x="219.5" y="682.5" width="39" height="39" fill="white" stroke="black"/>
<rect x="219.5" y="682.5" width="39" height="39" fill="white" stroke="black"/>
<rect x="259.5" y="682.5" width="39" height="39" fill="white" stroke="black"/>
<rect x="299.5" y="682.5" width="39" height="39" fill="white" stroke="black"/>
<rect x="259.5" y="722.5" width="39" height="39" fill="white" stroke="black"/>
<rect x="259.5" y="762.5" width="39" height="39" fill="white" stroke="black"/>
<rect x="299.5" y="722.5" width="39" height="39" fill="white" stroke="black"/>
<rect x="299.5" y="762.5" width="39" height="39" fill="white" stroke="black"/>
<rect x="219.5" y="722.5" width="39" height="39" fill="white" stroke="black"/>
<rect x="219.5" y="762.5" width="39" height="39" fill="white" stroke="black"/>
<rect x="259.5" y="642.5" width="39" height="39" fill="white" stroke="black"/>
<rect x="299.5" y="642.5" width="39" height="39" fill="white" stroke="black"/>
<rect x="179.5" y="682.5" width="39" height="39" fill="white" stroke="black"/>
<rect x="179.5" y="722.5" width="39" height="39" fill="white" stroke="black"/>
<rect x="179.5" y="762.5" width="39" height="39" fill="white" stroke="black"/>
<rect x="139.5" y="762.5" width="39" height="39" fill="white" stroke="black"/>
<text fill="black" style="white-space: pre" xml:space="preserve" font-family="Inter" font-size="40" letter-spacing="0em"><tspan x="847" y="399.2">&#x1f340;</tspan></text>
<rect x="141.5" y="866.5" width="39" height="39" fill="white" stroke="black"/>
<rect x="181.5" y="866.5" width="39" height="39" fill="white" stroke="black"/>
<rect x="221.5" y="866.5" width="39" height="39" fill="white" stroke="black"/>
<rect x="261.5" y="866.5" width="39" height="39" fill="white" stroke="black"/>
<rect x="301.5" y="866.5" width="39" height="39" fill="white" stroke="black"/>
<rect x="141.5" y="906.5" width="39" height="39" fill="white" stroke="black"/>
<rect x="141.5" y="946.5" width="39" height="39" fill="white" stroke="black"/>
<rect x="141.5" y="986.5" width="39" height="39" fill="white" stroke="black"/>
<rect x="181.5" y="906.5" width="39" height="39" fill="white" stroke="black"/>
<rect x="221.5" y="906.5" width="39" height="39" fill="white" stroke="black"/>
<rect x="221.5" y="946.5" width="39" height="39" fill="white" stroke="black"/>
<rect x="221.5" y="946.5" width="39" height="39" fill="white" stroke="black"/>
<rect x="261.5" y="946.5" width="39" height="39" fill="white" stroke="black"/>
<rect x="301.5" y="946.5" width="39" height="39" fill="white" stroke="black"/>
<rect x="261.5" y="986.5" width="39" height="39" fill="white" stroke="black"/>
<rect x="301.5" y="986.5" width="39" height="39" fill="white" stroke="black"/>
<rect x="221.5" y="986.5" width="39" height="39" fill="white" stroke="black"/>
<rect x="261.5" y="906.5" width="39" height="39" fill="white" stroke="black"/>
<rect x="301.5" y="906.5" width="39" height="39" fill="white" stroke="black"/>
<rect x="181.5" y="946.5" width="39" height="39" fill="white" stroke="black"/>
<rect x="181.5" y="986.5" width="39" height="39" fill="white" stroke="black"/>
<text fill="black" style="white-space: pre" xml:space="preserve" font-family="Inter" font-size="40" letter-spacing="0em"><tspan x="141" y="906.2">&#x1f340;</tspan></text>
<text fill="black" style="white-space: pre" xml:space="preserve" font-family="Inter" font-size="40" letter-spacing="0em"><tspan x="139" y="210.045">&#x1f955;&#x1f340;&#x1f44f;&#x1f4db;&#x1f42f;&#10;</tspan><tspan x="139" y="251.045">&#x1f35b;&#x1f420;&#x1f41f;&#x1f969;&#x1f421;&#10;</tspan><tspan x="139" y="292.045">&#x1f953;&#x1faf6;&#x1f3cd;&#xfe0f;&#x1f6ab;&#x1fae8;&#10;</tspan></text>
<rect x="847.5" y="602.5" width="39" height="39" fill="white" stroke="black"/>
<rect x="887.5" y="602.5" width="39" height="39" fill="white" stroke="black"/>
<rect x="927.5" y="602.5" width="39" height="39" fill="white" stroke="black"/>
<rect x="967.5" y="602.5" width="39" height="39" fill="white" stroke="black"/>
<rect x="1007.5" y="602.5" width="39" height="39" fill="white" stroke="black"/>
<rect x="847.5" y="642.5" width="39" height="39" fill="white" stroke="black"/>
<rect x="847.5" y="682.5" width="39" height="39" fill="white" stroke="black"/>
<rect x="847.5" y="722.5" width="39" height="39" fill="white" stroke="black"/>
<rect x="887.5" y="642.5" width="39" height="39" fill="white" stroke="black"/>
<rect x="927.5" y="642.5" width="39" height="39" fill="white" stroke="black"/>
<rect x="927.5" y="682.5" width="39" height="39" fill="white" stroke="black"/>
<rect x="927.5" y="682.5" width="39" height="39" fill="white" stroke="black"/>
<rect x="967.5" y="682.5" width="39" height="39" fill="white" stroke="black"/>
<rect x="1007.5" y="682.5" width="39" height="39" fill="white" stroke="black"/>
<rect x="967.5" y="722.5" width="39" height="39" fill="white" stroke="black"/>
<rect x="967.5" y="762.5" width="39" height="39" fill="white" stroke="black"/>
<rect x="1007.5" y="722.5" width="39" height="39" fill="white" stroke="black"/>
<rect x="1007.5" y="762.5" width="39" height="39" fill="white" stroke="black"/>
<rect x="927.5" y="722.5" width="39" height="39" fill="white" stroke="black"/>
<rect x="927.5" y="762.5" width="39" height="39" fill="white" stroke="black"/>
<rect x="967.5" y="642.5" width="39" height="39" fill="white" stroke="black"/>
<rect x="1007.5" y="642.5" width="39" height="39" fill="white" stroke="black"/>
<rect x="887.5" y="682.5" width="39" height="39" fill="white" stroke="black"/>
<rect x="887.5" y="722.5" width="39" height="39" fill="white" stroke="black"/>
<rect x="887.5" y="762.5" width="39" height="39" fill="white" stroke="black"/>
<rect x="847.5" y="762.5" width="39" height="39" fill="white" stroke="black"/>
<rect x="1047.5" y="602.5" width="39" height="39" fill="white" stroke="black"/>
<rect x="1087.5" y="602.5" width="39" height="39" fill="white" stroke="black"/>
<rect x="1127.5" y="602.5" width="39" height="39" fill="white" stroke="black"/>
<rect x="1167.5" y="602.5" width="39" height="39" fill="white" stroke="black"/>
<rect x="1207.5" y="602.5" width="39" height="39" fill="white" stroke="black"/>
<rect x="1047.5" y="642.5" width="39" height="39" fill="white" stroke="black"/>
<rect x="1047.5" y="682.5" width="39" height="39" fill="white" stroke="black"/>
<rect x="1047.5" y="722.5" width="39" height="39" fill="white" stroke="black"/>
<rect x="1087.5" y="642.5" width="39" height="39" fill="white" stroke="black"/>
<rect x="1127.5" y="642.5" width="39" height="39" fill="white" stroke="black"/>
<rect x="1127.5" y="682.5" width="39" height="39" fill="white" stroke="black"/>
<rect x="1127.5" y="682.5" width="39" height="39" fill="white" stroke="black"/>
<rect x="1167.5" y="682.5" width="39" height="39" fill="white" stroke="black"/>
<rect x="1207.5" y="682.5" width="39" height="39" fill="white" stroke="black"/>
<rect x="1167.5" y="722.5" width="39" height="39" fill="white" stroke="black"/>
<rect x="1167.5" y="762.5" width="39" height="39" fill="white" stroke="black"/>
<rect x="1207.5" y="722.5" width="39" height="39" fill="white" stroke="black"/>
<rect x="1207.5" y="762.5" width="39" height="39" fill="white" stroke="black"/>
<rect x="1127.5" y="722.5" width="39" height="39" fill="white" stroke="black"/>
<rect x="1127.5" y="762.5" width="39" height="39" fill="white" stroke="black"/>
<rect x="1167.5" y="642.5" width="39" height="39" fill="white" stroke="black"/>
<rect x="1207.5" y="642.5" width="39" height="39" fill="white" stroke="black"/>
<rect x="1087.5" y="682.5" width="39" height="39" fill="white" stroke="black"/>
<rect x="1087.5" y="722.5" width="39" height="39" fill="white" stroke="black"/>
<rect x="1087.5" y="762.5" width="39" height="39" fill="white" stroke="black"/>
<rect x="1047.5" y="762.5" width="39" height="39" fill="white" stroke="black"/>
<rect x="1293" y="134" width="95" height="40" fill="#FF9191"/>
<text fill="black" style="white-space: pre" xml:space="preserve" font-family="Inter" font-size="24" letter-spacing="0em"><tspan x="1293" y="162.227">&#x9078;&#x629e;&#x89e3;&#x9664;</tspan></text>
<rect x="647" y="802" width="600" height="40" fill="#FF9191"/>
<text fill="black" style="white-space: pre" xml:space="preserve" font-family="Inter" font-size="40" letter-spacing="0em"><tspan x="927" y="839.2">&#x2795;</tspan></text>
<rect x="642" y="160" width="600" height="40" fill="#FF9191"/>
<text fill="black" style="white-space: pre" xml:space="preserve" font-family="Inter" font-size="40" letter-spacing="0em"><tspan x="922" y="197.2">&#x2795;</tspan></text>
<rect x="1247" y="198" width="46" height="604" fill="#FF9191"/>
<text fill="black" style="white-space: pre" xml:space="preserve" font-family="Inter" font-size="40" letter-spacing="0em"><tspan x="1250" y="509.2">&#x2795;</tspan></text>
<rect x="601" y="198" width="46" height="604" fill="#FF9191"/>
<text fill="black" style="white-space: pre" xml:space="preserve" font-family="Inter" font-size="40" letter-spacing="0em"><tspan x="604" y="509.2">&#x2795;</tspan></text>
<rect x="86" y="87" width="320" height="44" fill="#8EFFB9"/>
<rect x="117.5" y="94.5" width="70" height="28" fill="#D2FFB5" stroke="black"/>
<rect x="188.5" y="94.5" width="70" height="28" fill="#D2FFB5" stroke="black"/>
<rect x="259.5" y="94.5" width="70" height="28" fill="#D2FFB5" stroke="black"/>
<rect x="328.5" y="94.5" width="70" height="28" fill="#D2FFB5" stroke="black"/>
<text fill="black" style="white-space: pre" xml:space="preserve" font-family="Inter" font-size="20" letter-spacing="0em"><tspan x="88.0215" y="113.273">30030&#x3054;&#x3068;&#x306e;&#x30bf;&#x30d6;&#x30ea;&#x30b9;&#x30c8;+&#x306e;&#x3089;&#x7d75;&#x6587;&#x5b57;</tspan></text>
<text fill="#FF0000" stroke="#FF0000" style="white-space: pre" xml:space="preserve" font-family="Inter" font-size="20" letter-spacing="0em"><tspan x="406" y="53.2727">&#x30b9;&#x30af;&#x30ed;&#x30fc;&#x30eb;&#x30b9;&#x30d1;&#x30a4;&#x578b;&#x30bf;&#x30d6;</tspan></text>
<path d="M405.098 86.5691C404.86 87.0675 405.071 87.6644 405.569 87.9024L413.691 91.7803C414.189 92.0183 414.786 91.8072 415.024 91.3088C415.262 90.8104 415.051 90.2135 414.553 89.9755L407.333 86.5285L410.78 79.3092C411.018 78.8108 410.807 78.2139 410.309 77.9759C409.81 77.7379 409.213 77.9491 408.976 78.4474L405.098 86.5691ZM488 58L487.667 57.0572L405.667 86.0572L406 87L406.333 87.9428L488.333 58.9428L488 58Z" fill="#FF0000"/>
</g>
<defs>
<clipPath id="clip0_2_35">
<rect width="1440" height="1024" fill="white"/>
</clipPath>
</defs>
</svg>
